<svg id="Domestic_Food_court" data-name="Domestic Food court" xmlns="http://www.w3.org/2000/svg" viewBox="0 0 1920 1080"><defs><style>.cls-1{fill:#e6e7e8;}.cls-1,.cls-2,.cls-21,.cls-25,.cls-27{stroke:#000;}.cls-1,.cls-2,.cls-20,.cls-21,.cls-25,.cls-27{stroke-miterlimit:10;stroke-width:0.1px;}.cls-2,.cls-20{fill:#faa71b;}.cls-3{font-size:1.8px;}.cls-3,.cls-6{font-family:Amplitude-Regular;}.cls-4{letter-spacing:-0.02em;}.cls-5{letter-spacing:0em;}.cls-6{font-size:1.87px;}.cls-7{letter-spacing:-0.01em;}.cls-8{letter-spacing:-0.03em;}.cls-9{letter-spacing:-0.01em;}.cls-10{letter-spacing:-0.04em;}.cls-11{letter-spacing:0.01em;}.cls-12{letter-spacing:-0.01em;}.cls-13{letter-spacing:0em;}.cls-14{letter-spacing:0em;}.cls-15{letter-spacing:-0.03em;}.cls-16{letter-spacing:0.03em;}.cls-17{font-size:2px;}.cls-18{letter-spacing:-0.01em;}.cls-19{letter-spacing:-0.01em;}.cls-20{stroke:#faa71b;}.cls-21,.cls-22{fill:#939598;}.cls-23{letter-spacing:0.01em;}.cls-24{fill:none;}.cls-25,.cls-26{fill:#fff;}.cls-27{fill:#3ec2cf;}</style></defs><g id="Domestic_Food_Court_BG_Colour" data-name="Domestic Food Court BG Colour"><rect class="cls-1" x="777.98" y="449.21" width="183.28" height="101.19" transform="translate(1739.24 999.6) rotate(180)"/></g><g id="F_B" data-name="F&amp;B"><g id="Air_India_Lounge" data-name="Air India Lounge"><polygon class="cls-2" points="960.64 465.38 960.64 508.32 945.97 508.32 943.93 506.38 948.24 503.75 948.24 497.14 946.45 495.35 946.45 488.41 948.21 486.65 948.21 481.18 945.92 478.9 945.89 465.38 960.64 465.38"/><text class="cls-3" transform="translate(955.16 493.07) rotate(-90)">Air India <tspan class="cls-4" x="6.66" y="0">L</tspan><tspan x="7.47" y="0">ou</tspan><tspan class="cls-5" x="9.31" y="0">n</tspan><tspan x="10.23" y="0">ge</tspan></text></g><g id="Plaza_Premium_Lounge" data-name="Plaza Premium Lounge"><polygon class="cls-2" points="943.09 510.71 943.09 529.96 910.59 529.96 910.59 523.21 900.34 523.21 900.34 521.41 885.14 521.41 885.14 514.98 884.21 514.98 884.21 503.75 901.61 503.75 910.61 508.25 919.09 503.75 930.93 503.75 943.09 510.71"/><text class="cls-6" transform="translate(905.23 516.36)">Plaza P<tspan class="cls-7" x="5.56" y="0">r</tspan><tspan x="6.24" y="0">emium </tspan><tspan class="cls-8" x="11.92" y="0">L</tspan><tspan x="12.76" y="0">ou</tspan><tspan class="cls-9" x="14.67" y="0">n</tspan><tspan x="15.63" y="0">ge</tspan></text></g><g id="Vacant"><polygon class="cls-2" points="873.3 503.75 883.99 503.75 883.99 514.93 870.74 514.93 873.3 503.75"/><text class="cls-3" transform="translate(875.46 509.92)"><tspan class="cls-10">V</tspan><tspan x="0.96" y="0">a</tspan><tspan class="cls-11" x="1.84" y="0">c</tspan><tspan x="2.61" y="0">a</tspan><tspan class="cls-12" x="3.49" y="0">n</tspan><tspan class="cls-13" x="4.41" y="0">t</tspan></text></g><g id="Vacant-2" data-name="Vacant"><polygon class="cls-2" points="854.95 514.96 854.95 521.05 843.42 521.05 843.42 515.82 845.63 515.82 846.63 513.23 853.51 514.8 854.95 514.96"/><text class="cls-3" transform="translate(847.11 518.68)"><tspan class="cls-10">V</tspan><tspan x="0.96" y="0">a</tspan><tspan class="cls-14" x="1.84" y="0">c</tspan><tspan x="2.61" y="0">a</tspan><tspan class="cls-12" x="3.49" y="0">n</tspan><tspan class="cls-13" x="4.41" y="0">t</tspan></text></g><g id="Falafel"><polygon class="cls-2" points="839.26 509.76 835.93 514.28 835.93 514.31 835.93 521.01 843.42 521.05 843.42 515.82 845.63 515.82 846.63 513.23 844.09 512.25 842.1 511.37 839.86 510.09 839.26 509.76"/><text class="cls-3" transform="translate(837.23 518.61)"><tspan class="cls-15">F</tspan><tspan x="0.83" y="0">ala</tspan><tspan class="cls-5" x="3.05" y="0">f</tspan><tspan x="3.6" y="0">el</tspan></text></g><g id="Biryani_Blues" data-name="Biryani Blues"><rect class="cls-2" x="808.64" y="514.28" width="27.36" height="6.76"/><text class="cls-3" transform="translate(816.09 518.61)">Bi<tspan class="cls-16" x="1.45" y="0">r</tspan><tspan class="cls-5" x="2.17" y="0">y</tspan><tspan x="2.99" y="0">ani Blues</tspan><tspan class="cls-17" x="9.66" y="0"> </tspan></text></g><g id="Subway"><polygon class="cls-2" points="832.92 504.52 828.86 507.88 808.64 507.96 808.64 514.28 835.93 514.28 839.26 509.76 836.99 508.32 832.92 504.52"/><text class="cls-3" transform="translate(813.66 510.89)">Sub<tspan class="cls-5" x="2.75" y="0">w</tspan><tspan class="cls-18" x="3.95" y="0">a</tspan><tspan x="4.81" y="0">y</tspan></text></g><g id="Carnatic_Cafe" data-name="Carnatic Cafe"><path class="cls-2" d="M828.54,498.94l-6.37,2.74H808.64V508l20.22-.08,4.06-3.36S829.13,500.56,828.54,498.94Z"/><text class="cls-3" transform="translate(811.61 505.03)"><tspan class="cls-14">C</tspan><tspan x="0.92" y="0">arnatic </tspan><tspan class="cls-14" x="6.5" y="0">C</tspan><tspan x="7.42" y="0">a</tspan><tspan class="cls-5" x="8.3" y="0">f</tspan><tspan class="cls-13" x="8.85" y="0">e</tspan></text></g><g id="Dhaba_T3" data-name="Dhaba@T3"><path class="cls-2" d="M825.35,492.62l-5,1.53H808.64v7.53h13.53l6.37-2.74A37.12,37.12,0,0,1,825.35,492.62Z"/><text class="cls-3" transform="translate(812.57 497.51)">Dhaba<tspan class="cls-4" x="4.71" y="0">@</tspan><tspan class="cls-13" x="6.06" y="0">T3</tspan></text></g><g id="Papparoti"><path class="cls-2" d="M824.74,490.42l-4.58,1.39H808.64v2.34H820.4l5-1.53A11.33,11.33,0,0,1,824.74,490.42Z"/><text class="cls-3" transform="translate(812.39 493.64)"><tspan class="cls-19">P</tspan><tspan x="0.96" y="0">appa</tspan><tspan class="cls-18" x="4.59" y="0">r</tspan><tspan x="5.24" y="0">oti</tspan></text></g><g id="Dominos"><polyline class="cls-2" points="824.74 490.42 820.16 491.81 808.64 491.81 808.64 488.85 824.47 488.85 824.74 490.42"/><text class="cls-3" transform="translate(812.86 490.71)">Dominos</text></g><g id="Bercos"><path class="cls-2" d="M824.08,484.8H808.64v4.05h15.83A26.71,26.71,0,0,1,824.08,484.8Z"/><text class="cls-3" transform="translate(813.79 487.2)">Be<tspan class="cls-18" x="1.88" y="0">r</tspan><tspan class="cls-5" x="2.53" y="0">c</tspan><tspan x="3.29" y="0">os</tspan></text></g><g id="Wing_Ding" data-name="Wing Ding"><path class="cls-2" d="M824.31,480.3H808.64v4.5h15.44A20.11,20.11,0,0,1,824.31,480.3Z"/><text class="cls-3" transform="translate(812.58 482.92)"><tspan class="cls-18">W</tspan><tspan x="1.36" y="0">i</tspan><tspan class="cls-12" x="1.8" y="0">n</tspan><tspan x="2.73" y="0">g Di</tspan><tspan class="cls-12" x="5.54" y="0">n</tspan><tspan x="6.47" y="0">g</tspan></text></g><g id="Nourish"><polygon class="cls-2" points="825.14 475.86 808.64 475.86 808.64 480.3 824.31 480.3 825.14 475.86"/><text class="cls-3" transform="translate(813.62 478.49)">Nourish</text></g><g id="KFC"><path class="cls-20" d="M829.21,467.25H808.64v7.32h16.5S827.77,468.78,829.21,467.25Z"/><text class="cls-3" transform="translate(815.61 471.2)">K<tspan class="cls-19" x="1" y="0">F</tspan><tspan x="1.87" y="0">C</tspan></text></g></g><g id="Uitilities"><g id="Escalators"><g id="Escalator"><rect class="cls-21" x="943.32" y="519.39" width="19.77" height="1.75" transform="translate(1473.47 -432.94) rotate(90)"/><line class="cls-21" x1="954.08" y1="511.13" x2="952.33" y2="511.13"/><line class="cls-21" x1="954.08" y1="511.61" x2="952.33" y2="511.61"/><line class="cls-21" x1="954.08" y1="512.08" x2="952.33" y2="512.08"/><line class="cls-21" x1="954.08" y1="512.55" x2="952.33" y2="512.55"/><line class="cls-21" x1="954.08" y1="512.99" x2="952.33" y2="512.99"/><line class="cls-21" x1="954.08" y1="513.43" x2="952.33" y2="513.43"/><line class="cls-21" x1="954.08" y1="513.89" x2="952.33" y2="513.89"/><line class="cls-21" x1="954.08" y1="514.36" x2="952.33" y2="514.36"/><line class="cls-21" x1="954.08" y1="514.81" x2="952.33" y2="514.81"/><line class="cls-21" x1="954.08" y1="515.28" x2="952.33" y2="515.28"/><line class="cls-21" x1="954.08" y1="515.75" x2="952.33" y2="515.75"/><line class="cls-21" x1="954.08" y1="516.2" x2="952.33" y2="516.2"/><line class="cls-21" x1="954.08" y1="516.6" x2="952.33" y2="516.6"/><line class="cls-21" x1="954.08" y1="517.09" x2="952.33" y2="517.09"/><line class="cls-21" x1="954.08" y1="517.56" x2="952.33" y2="517.56"/><line class="cls-21" x1="954.08" y1="518.01" x2="952.33" y2="518.01"/><line class="cls-21" x1="954.08" y1="518.46" x2="952.33" y2="518.46"/><line class="cls-21" x1="954.08" y1="518.88" x2="952.33" y2="518.88"/><line class="cls-21" x1="954.08" y1="519.32" x2="952.33" y2="519.32"/><line class="cls-21" x1="954.08" y1="519.72" x2="952.33" y2="519.72"/><line class="cls-21" x1="954.08" y1="520.19" x2="952.33" y2="520.19"/><line class="cls-21" x1="954.08" y1="520.64" x2="952.33" y2="520.64"/><line class="cls-21" x1="954.08" y1="521.11" x2="952.33" y2="521.11"/><line class="cls-21" x1="954.08" y1="521.58" x2="952.33" y2="521.58"/><line class="cls-21" x1="954.08" y1="522.02" x2="952.33" y2="522.02"/><line class="cls-21" x1="954.08" y1="522.47" x2="952.33" y2="522.47"/><line class="cls-21" x1="954.08" y1="522.92" x2="952.33" y2="522.92"/><line class="cls-21" x1="954.08" y1="523.4" x2="952.33" y2="523.4"/><line class="cls-21" x1="954.08" y1="523.86" x2="952.33" y2="523.86"/><line class="cls-21" x1="954.08" y1="524.3" x2="952.33" y2="524.3"/><line class="cls-21" x1="954.08" y1="524.76" x2="952.33" y2="524.76"/><line class="cls-21" x1="954.08" y1="525.2" x2="952.33" y2="525.2"/><line class="cls-21" x1="954.08" y1="525.68" x2="952.33" y2="525.68"/><line class="cls-21" x1="954.08" y1="526.14" x2="952.33" y2="526.14"/><line class="cls-21" x1="954.08" y1="526.58" x2="952.33" y2="526.58"/><line class="cls-21" x1="954.08" y1="527.03" x2="952.33" y2="527.03"/><line class="cls-21" x1="954.08" y1="527.48" x2="952.33" y2="527.48"/></g><g id="Escalator-2" data-name="Escalator"><rect class="cls-21" x="843.42" y="455.58" width="19.77" height="1.75"/><line class="cls-21" x1="844.18" y1="455.58" x2="844.18" y2="457.34"/><line class="cls-21" x1="844.66" y1="455.58" x2="844.66" y2="457.34"/><line class="cls-21" x1="845.12" y1="455.58" x2="845.12" y2="457.34"/><line class="cls-21" x1="845.59" y1="455.58" x2="845.59" y2="457.34"/><line class="cls-21" x1="846.03" y1="455.58" x2="846.03" y2="457.34"/><line class="cls-21" x1="846.48" y1="455.58" x2="846.48" y2="457.34"/><line class="cls-21" x1="846.93" y1="455.58" x2="846.93" y2="457.34"/><line class="cls-21" x1="847.41" y1="455.58" x2="847.41" y2="457.34"/><line class="cls-21" x1="847.85" y1="455.58" x2="847.85" y2="457.34"/><line class="cls-21" x1="848.32" y1="455.58" x2="848.32" y2="457.34"/><line class="cls-21" x1="848.8" y1="455.58" x2="848.8" y2="457.34"/><line class="cls-21" x1="849.24" y1="455.58" x2="849.24" y2="457.34"/><line class="cls-21" x1="849.64" y1="455.58" x2="849.64" y2="457.34"/><line class="cls-21" x1="850.14" y1="455.58" x2="850.14" y2="457.34"/><line class="cls-21" x1="850.6" y1="455.58" x2="850.6" y2="457.34"/><line class="cls-21" x1="851.06" y1="455.58" x2="851.06" y2="457.34"/><line class="cls-21" x1="851.5" y1="455.58" x2="851.5" y2="457.34"/><line class="cls-21" x1="851.93" y1="455.58" x2="851.93" y2="457.34"/><line class="cls-21" x1="852.36" y1="455.58" x2="852.36" y2="457.34"/><line class="cls-21" x1="852.77" y1="455.58" x2="852.77" y2="457.34"/><line class="cls-21" x1="853.24" y1="455.58" x2="853.24" y2="457.34"/><line class="cls-21" x1="853.69" y1="455.58" x2="853.69" y2="457.34"/><line class="cls-21" x1="854.15" y1="455.58" x2="854.15" y2="457.34"/><line class="cls-21" x1="854.62" y1="455.58" x2="854.62" y2="457.34"/><line class="cls-21" x1="855.06" y1="455.58" x2="855.06" y2="457.34"/><line class="cls-21" x1="855.52" y1="455.58" x2="855.52" y2="457.34"/><line class="cls-21" x1="855.96" y1="455.58" x2="855.96" y2="457.34"/><line class="cls-21" x1="856.44" y1="455.58" x2="856.44" y2="457.34"/><line class="cls-21" x1="856.91" y1="455.58" x2="856.91" y2="457.34"/><line class="cls-21" x1="857.35" y1="455.58" x2="857.35" y2="457.34"/><line class="cls-21" x1="857.8" y1="455.58" x2="857.8" y2="457.34"/><line class="cls-21" x1="858.25" y1="455.58" x2="858.25" y2="457.34"/><line class="cls-21" x1="858.73" y1="455.58" x2="858.73" y2="457.34"/><line class="cls-21" x1="859.18" y1="455.58" x2="859.18" y2="457.34"/><line class="cls-21" x1="859.62" y1="455.58" x2="859.62" y2="457.34"/><line class="cls-21" x1="860.08" y1="455.58" x2="860.08" y2="457.34"/><line class="cls-21" x1="860.53" y1="455.58" x2="860.53" y2="457.34"/><rect class="cls-21" x="843.42" y="457.64" width="19.77" height="1.75"/><line class="cls-21" x1="844.18" y1="457.64" x2="844.18" y2="459.39"/><line class="cls-21" x1="844.66" y1="457.64" x2="844.66" y2="459.39"/><line class="cls-21" x1="845.12" y1="457.64" x2="845.12" y2="459.39"/><line class="cls-21" x1="845.59" y1="457.64" x2="845.59" y2="459.39"/><line class="cls-21" x1="846.03" y1="457.64" x2="846.03" y2="459.39"/><line class="cls-21" x1="846.48" y1="457.64" x2="846.48" y2="459.39"/><line class="cls-21" x1="846.93" y1="457.64" x2="846.93" y2="459.39"/><line class="cls-21" x1="847.41" y1="457.64" x2="847.41" y2="459.39"/><line class="cls-21" x1="847.85" y1="457.64" x2="847.85" y2="459.39"/><line class="cls-21" x1="848.32" y1="457.64" x2="848.32" y2="459.39"/><line class="cls-21" x1="848.8" y1="457.64" x2="848.8" y2="459.39"/><line class="cls-21" x1="849.24" y1="457.64" x2="849.24" y2="459.39"/><line class="cls-21" x1="849.64" y1="457.64" x2="849.64" y2="459.39"/><line class="cls-21" x1="850.14" y1="457.64" x2="850.14" y2="459.39"/><line class="cls-21" x1="850.6" y1="457.64" x2="850.6" y2="459.39"/><line class="cls-21" x1="851.06" y1="457.64" x2="851.06" y2="459.39"/><line class="cls-21" x1="851.5" y1="457.64" x2="851.5" y2="459.39"/><line class="cls-21" x1="851.93" y1="457.64" x2="851.93" y2="459.39"/><line class="cls-21" x1="852.36" y1="457.64" x2="852.36" y2="459.39"/><line class="cls-21" x1="852.77" y1="457.64" x2="852.77" y2="459.39"/><line class="cls-21" x1="853.24" y1="457.64" x2="853.24" y2="459.39"/><line class="cls-21" x1="853.69" y1="457.64" x2="853.69" y2="459.39"/><line class="cls-21" x1="854.15" y1="457.64" x2="854.15" y2="459.39"/><line class="cls-21" x1="854.62" y1="457.64" x2="854.62" y2="459.39"/><line class="cls-21" x1="855.06" y1="457.64" x2="855.06" y2="459.39"/><line class="cls-21" x1="855.52" y1="457.64" x2="855.52" y2="459.39"/><line class="cls-21" x1="855.96" y1="457.64" x2="855.96" y2="459.39"/><line class="cls-21" x1="856.44" y1="457.64" x2="856.44" y2="459.39"/><line class="cls-21" x1="856.91" y1="457.64" x2="856.91" y2="459.39"/><line class="cls-21" x1="857.35" y1="457.64" x2="857.35" y2="459.39"/><line class="cls-21" x1="857.8" y1="457.64" x2="857.8" y2="459.39"/><line class="cls-21" x1="858.25" y1="457.64" x2="858.25" y2="459.39"/><line class="cls-21" x1="858.73" y1="457.64" x2="858.73" y2="459.39"/><line class="cls-21" x1="859.18" y1="457.64" x2="859.18" y2="459.39"/><line class="cls-21" x1="859.62" y1="457.64" x2="859.62" y2="459.39"/><line class="cls-21" x1="860.08" y1="457.64" x2="860.08" y2="459.39"/><line class="cls-21" x1="860.53" y1="457.64" x2="860.53" y2="459.39"/></g><g id="Escalator-3" data-name="Escalator"><rect class="cls-21" x="817.4" y="455.99" width="12.09" height="1.75"/><line class="cls-21" x1="817.86" y1="455.99" x2="817.86" y2="457.74"/><line class="cls-21" x1="818.16" y1="455.99" x2="818.16" y2="457.74"/><line class="cls-21" x1="818.44" y1="455.99" x2="818.44" y2="457.74"/><line class="cls-21" x1="818.73" y1="455.99" x2="818.73" y2="457.74"/><line class="cls-21" x1="819" y1="455.99" x2="819" y2="457.74"/><line class="cls-21" x1="819.27" y1="455.99" x2="819.27" y2="457.74"/><line class="cls-21" x1="819.55" y1="455.99" x2="819.55" y2="457.74"/><line class="cls-21" x1="819.84" y1="455.99" x2="819.84" y2="457.74"/><line class="cls-21" x1="820.11" y1="455.99" x2="820.11" y2="457.74"/><line class="cls-21" x1="820.4" y1="455.99" x2="820.4" y2="457.74"/><line class="cls-21" x1="820.69" y1="455.99" x2="820.69" y2="457.74"/><line class="cls-21" x1="820.96" y1="455.99" x2="820.96" y2="457.74"/><line class="cls-21" x1="821.21" y1="455.99" x2="821.21" y2="457.74"/><line class="cls-21" x1="821.51" y1="455.99" x2="821.51" y2="457.74"/><line class="cls-21" x1="821.79" y1="455.99" x2="821.79" y2="457.74"/><line class="cls-21" x1="822.07" y1="455.99" x2="822.07" y2="457.74"/><line class="cls-21" x1="822.34" y1="455.99" x2="822.34" y2="457.74"/><line class="cls-21" x1="822.6" y1="455.99" x2="822.6" y2="457.74"/><line class="cls-21" x1="822.87" y1="455.99" x2="822.87" y2="457.74"/><line class="cls-21" x1="823.12" y1="455.99" x2="823.12" y2="457.74"/><line class="cls-21" x1="823.41" y1="455.99" x2="823.41" y2="457.74"/><line class="cls-21" x1="823.68" y1="455.99" x2="823.68" y2="457.74"/><line class="cls-21" x1="823.96" y1="455.99" x2="823.96" y2="457.74"/><line class="cls-21" x1="824.25" y1="455.99" x2="824.25" y2="457.74"/><line class="cls-21" x1="824.52" y1="455.99" x2="824.52" y2="457.74"/><line class="cls-21" x1="824.8" y1="455.99" x2="824.8" y2="457.74"/><line class="cls-21" x1="825.07" y1="455.99" x2="825.07" y2="457.74"/><line class="cls-21" x1="825.37" y1="455.99" x2="825.37" y2="457.74"/><line class="cls-21" x1="825.65" y1="455.99" x2="825.65" y2="457.74"/><line class="cls-21" x1="825.92" y1="455.99" x2="825.92" y2="457.74"/><line class="cls-21" x1="826.2" y1="455.99" x2="826.2" y2="457.74"/><line class="cls-21" x1="826.47" y1="455.99" x2="826.47" y2="457.74"/><line class="cls-21" x1="826.76" y1="455.99" x2="826.76" y2="457.74"/><line class="cls-21" x1="827.04" y1="455.99" x2="827.04" y2="457.74"/><line class="cls-21" x1="827.31" y1="455.99" x2="827.31" y2="457.74"/><line class="cls-21" x1="827.59" y1="455.99" x2="827.59" y2="457.74"/><line class="cls-21" x1="827.86" y1="455.99" x2="827.86" y2="457.74"/><rect class="cls-21" x="817.4" y="458.04" width="12.09" height="1.75" transform="translate(1646.9 917.83) rotate(-180)"/><line class="cls-21" x1="829.03" y1="459.79" x2="829.03" y2="458.04"/><line class="cls-21" x1="828.74" y1="459.79" x2="828.74" y2="458.04"/><line class="cls-21" x1="828.46" y1="459.79" x2="828.46" y2="458.04"/><line class="cls-21" x1="828.17" y1="459.79" x2="828.17" y2="458.04"/><line class="cls-21" x1="827.9" y1="459.79" x2="827.9" y2="458.04"/><line class="cls-21" x1="827.63" y1="459.79" x2="827.63" y2="458.04"/><line class="cls-21" x1="827.35" y1="459.79" x2="827.35" y2="458.04"/><line class="cls-21" x1="827.06" y1="459.79" x2="827.06" y2="458.04"/><line class="cls-21" x1="826.79" y1="459.79" x2="826.79" y2="458.04"/><line class="cls-21" x1="826.5" y1="459.79" x2="826.5" y2="458.04"/><line class="cls-21" x1="826.21" y1="459.79" x2="826.21" y2="458.04"/><line class="cls-21" x1="825.94" y1="459.79" x2="825.94" y2="458.04"/><line class="cls-21" x1="825.69" y1="459.79" x2="825.69" y2="458.04"/><line class="cls-21" x1="825.39" y1="459.79" x2="825.39" y2="458.04"/><line class="cls-21" x1="825.1" y1="459.79" x2="825.1" y2="458.04"/><line class="cls-21" x1="824.83" y1="459.79" x2="824.83" y2="458.04"/><line class="cls-21" x1="824.55" y1="459.79" x2="824.55" y2="458.04"/><line class="cls-21" x1="824.29" y1="459.79" x2="824.29" y2="458.04"/><line class="cls-21" x1="824.03" y1="459.79" x2="824.03" y2="458.04"/><line class="cls-21" x1="823.78" y1="459.79" x2="823.78" y2="458.04"/><line class="cls-21" x1="823.49" y1="459.79" x2="823.49" y2="458.04"/><line class="cls-21" x1="823.22" y1="459.79" x2="823.22" y2="458.04"/><line class="cls-21" x1="822.93" y1="459.79" x2="822.93" y2="458.04"/><line class="cls-21" x1="822.65" y1="459.79" x2="822.65" y2="458.04"/><line class="cls-21" x1="822.38" y1="459.79" x2="822.38" y2="458.04"/><line class="cls-21" x1="822.1" y1="459.79" x2="822.1" y2="458.04"/><line class="cls-21" x1="821.83" y1="459.79" x2="821.83" y2="458.04"/><line class="cls-21" x1="821.53" y1="459.79" x2="821.53" y2="458.04"/><line class="cls-21" x1="821.25" y1="459.79" x2="821.25" y2="458.04"/><line class="cls-21" x1="820.98" y1="459.79" x2="820.98" y2="458.04"/><line class="cls-21" x1="820.7" y1="459.79" x2="820.7" y2="458.04"/><line class="cls-21" x1="820.43" y1="459.79" x2="820.43" y2="458.04"/><line class="cls-21" x1="820.13" y1="459.79" x2="820.13" y2="458.04"/><line class="cls-21" x1="819.86" y1="459.79" x2="819.86" y2="458.04"/><line class="cls-21" x1="819.59" y1="459.79" x2="819.59" y2="458.04"/><line class="cls-21" x1="819.31" y1="459.79" x2="819.31" y2="458.04"/><line class="cls-21" x1="819.04" y1="459.79" x2="819.04" y2="458.04"/></g><g id="Escalator-4" data-name="Escalator"><rect class="cls-21" x="917.83" y="538.25" width="19.77" height="1.75"/><line class="cls-21" x1="918.58" y1="538.25" x2="918.58" y2="540"/><line class="cls-21" x1="919.06" y1="538.25" x2="919.06" y2="540"/><line class="cls-21" x1="919.52" y1="538.25" x2="919.52" y2="540"/><line class="cls-21" x1="919.99" y1="538.25" x2="919.99" y2="540"/><line class="cls-21" x1="920.43" y1="538.25" x2="920.43" y2="540"/><line class="cls-21" x1="920.88" y1="538.25" x2="920.88" y2="540"/><line class="cls-21" x1="921.34" y1="538.25" x2="921.34" y2="540"/><line class="cls-21" x1="921.81" y1="538.25" x2="921.81" y2="540"/><line class="cls-21" x1="922.26" y1="538.25" x2="922.26" y2="540"/><line class="cls-21" x1="922.73" y1="538.25" x2="922.73" y2="540"/><line class="cls-21" x1="923.2" y1="538.25" x2="923.2" y2="540"/><line class="cls-21" x1="923.65" y1="538.25" x2="923.65" y2="540"/><line class="cls-21" x1="924.05" y1="538.25" x2="924.05" y2="540"/><line class="cls-21" x1="924.54" y1="538.25" x2="924.54" y2="540"/><line class="cls-21" x1="925" y1="538.25" x2="925" y2="540"/><line class="cls-21" x1="925.46" y1="538.25" x2="925.46" y2="540"/><line class="cls-21" x1="925.91" y1="538.25" x2="925.91" y2="540"/><line class="cls-21" x1="926.33" y1="538.25" x2="926.33" y2="540"/><line class="cls-21" x1="926.76" y1="538.25" x2="926.76" y2="540"/><line class="cls-21" x1="927.17" y1="538.25" x2="927.17" y2="540"/><line class="cls-21" x1="927.64" y1="538.25" x2="927.64" y2="540"/><line class="cls-21" x1="928.09" y1="538.25" x2="928.09" y2="540"/><line class="cls-21" x1="928.55" y1="538.25" x2="928.55" y2="540"/><line class="cls-21" x1="929.02" y1="538.25" x2="929.02" y2="540"/><line class="cls-21" x1="929.46" y1="538.25" x2="929.46" y2="540"/><line class="cls-21" x1="929.92" y1="538.25" x2="929.92" y2="540"/><line class="cls-21" x1="930.37" y1="538.25" x2="930.37" y2="540"/><line class="cls-21" x1="930.85" y1="538.25" x2="930.85" y2="540"/><line class="cls-21" x1="931.31" y1="538.25" x2="931.31" y2="540"/><line class="cls-21" x1="931.75" y1="538.25" x2="931.75" y2="540"/><line class="cls-21" x1="932.2" y1="538.25" x2="932.2" y2="540"/><line class="cls-21" x1="932.65" y1="538.25" x2="932.65" y2="540"/><line class="cls-21" x1="933.13" y1="538.25" x2="933.13" y2="540"/><line class="cls-21" x1="933.59" y1="538.25" x2="933.59" y2="540"/><line class="cls-21" x1="934.03" y1="538.25" x2="934.03" y2="540"/><line class="cls-21" x1="934.48" y1="538.25" x2="934.48" y2="540"/><line class="cls-21" x1="934.93" y1="538.25" x2="934.93" y2="540"/></g><g id="Escalator-5" data-name="Escalator"><rect class="cls-21" x="939.04" y="455.72" width="19.77" height="1.75"/><line class="cls-21" x1="939.8" y1="455.72" x2="939.8" y2="457.47"/><line class="cls-21" x1="940.28" y1="455.72" x2="940.28" y2="457.47"/><line class="cls-21" x1="940.74" y1="455.72" x2="940.74" y2="457.47"/><line class="cls-21" x1="941.21" y1="455.72" x2="941.21" y2="457.47"/><line class="cls-21" x1="941.65" y1="455.72" x2="941.65" y2="457.47"/><line class="cls-21" x1="942.1" y1="455.72" x2="942.1" y2="457.47"/><line class="cls-21" x1="942.55" y1="455.72" x2="942.55" y2="457.47"/><line class="cls-21" x1="943.02" y1="455.72" x2="943.02" y2="457.47"/><line class="cls-21" x1="943.47" y1="455.72" x2="943.47" y2="457.47"/><line class="cls-21" x1="943.94" y1="455.72" x2="943.94" y2="457.47"/><line class="cls-21" x1="944.41" y1="455.72" x2="944.41" y2="457.47"/><line class="cls-21" x1="944.86" y1="455.72" x2="944.86" y2="457.47"/><line class="cls-21" x1="945.26" y1="455.72" x2="945.26" y2="457.47"/><line class="cls-21" x1="945.76" y1="455.72" x2="945.76" y2="457.47"/><line class="cls-21" x1="946.22" y1="455.72" x2="946.22" y2="457.47"/><line class="cls-21" x1="946.68" y1="455.72" x2="946.68" y2="457.47"/><line class="cls-21" x1="947.12" y1="455.72" x2="947.12" y2="457.47"/><line class="cls-21" x1="947.55" y1="455.72" x2="947.55" y2="457.47"/><line class="cls-21" x1="947.98" y1="455.72" x2="947.98" y2="457.47"/><line class="cls-21" x1="948.39" y1="455.72" x2="948.39" y2="457.47"/><line class="cls-21" x1="948.86" y1="455.72" x2="948.86" y2="457.47"/><line class="cls-21" x1="949.3" y1="455.72" x2="949.3" y2="457.47"/><line class="cls-21" x1="949.77" y1="455.72" x2="949.77" y2="457.47"/><line class="cls-21" x1="950.24" y1="455.72" x2="950.24" y2="457.47"/><line class="cls-21" x1="950.68" y1="455.72" x2="950.68" y2="457.47"/><line class="cls-21" x1="951.13" y1="455.72" x2="951.13" y2="457.47"/><line class="cls-21" x1="951.58" y1="455.72" x2="951.58" y2="457.47"/><line class="cls-21" x1="952.06" y1="455.72" x2="952.06" y2="457.47"/><line class="cls-21" x1="952.52" y1="455.72" x2="952.52" y2="457.47"/><line class="cls-21" x1="952.96" y1="455.72" x2="952.96" y2="457.47"/><line class="cls-21" x1="953.42" y1="455.72" x2="953.42" y2="457.47"/><line class="cls-21" x1="953.87" y1="455.72" x2="953.87" y2="457.47"/><line class="cls-21" x1="954.35" y1="455.72" x2="954.35" y2="457.47"/><line class="cls-21" x1="954.8" y1="455.72" x2="954.8" y2="457.47"/><line class="cls-21" x1="955.24" y1="455.72" x2="955.24" y2="457.47"/><line class="cls-21" x1="955.7" y1="455.72" x2="955.7" y2="457.47"/><line class="cls-21" x1="956.14" y1="455.72" x2="956.14" y2="457.47"/></g></g><g id="Elevators"><g id="Elevator"><rect class="cls-22" x="829.78" y="523.35" width="5.21" height="4.93"/><text class="cls-3" transform="translate(831.15 526.16)">Li<tspan class="cls-23" x="1.3" y="0">f</tspan><tspan x="1.88" y="0">t</tspan></text></g></g><g id="empty_areas" data-name="empty areas"><path class="cls-24" d="M1106.82,468.11l-.07,31.86h-120v-26.6s8.3,0,6.58-9.89c-.07-.06-6.58,0-6.58,0v-10h120.07v10h-10.66v-9.13h-3.77v7.55A8.18,8.18,0,0,1,1090,468S1106.82,468.11,1106.82,468.11Z"/><polygon class="cls-25" points="867.97 503.45 866.31 509.76 855.48 509.49 851.89 509.06 846.17 507.46 841.38 504.75 836.63 500.76 832.41 494.5 830.08 488.85 829.61 485.31 829.89 480.3 831.62 475 834.26 469.54 836.66 465.84 839.37 468.27 839.27 487.13 844 496.54 851.18 501.81 855.58 503.73 867.97 503.45"/><polygon class="cls-24" points="939.07 470.69 943.09 470.69 943.09 499.63 856.73 499.63 848.21 493.48 843.9 478.64 843.9 468.87 846.63 465.84 846.63 463.23 843.42 460.28 843.42 453.32 944.69 453.32 944.69 457.4 939.01 457.4 939.07 470.69"/><rect class="cls-26" x="779.37" y="455.5" width="19.09" height="9.96" transform="translate(1577.83 920.96) rotate(180)"/><polygon class="cls-25" points="800.43 467.88 779.37 467.88 779.37 548.5 955.16 548.5 955.16 532.67 960.64 532.67 960.64 508.32 945.97 508.32 945.97 533.37 909.52 533.37 909.52 524.25 873.11 524.25 873.11 535.99 857.69 535.99 857.69 523.35 800.5 523.31 800.43 467.88"/><rect class="cls-24" x="814.23" y="523.47" width="3.16" height="2.06"/><rect class="cls-24" x="814.23" y="525.53" width="3.53" height="0.29"/><rect class="cls-24" x="814.82" y="525.82" width="2.93" height="2.11"/><line class="cls-24" x1="814.58" y1="523.47" x2="814.58" y2="525.53"/><line class="cls-24" x1="814.91" y1="523.47" x2="814.91" y2="525.53"/><line class="cls-24" x1="815.26" y1="523.47" x2="815.26" y2="525.53"/><line class="cls-24" x1="815.59" y1="523.47" x2="815.59" y2="525.53"/><line class="cls-24" x1="815.92" y1="523.47" x2="815.92" y2="525.53"/><line class="cls-24" x1="816.25" y1="523.47" x2="816.25" y2="525.53"/><line class="cls-24" x1="816.6" y1="523.47" x2="816.6" y2="525.53"/><line class="cls-24" x1="816.93" y1="523.47" x2="816.93" y2="525.53"/><line class="cls-24" x1="816.19" y1="525.82" x2="816.19" y2="527.88"/><line class="cls-24" x1="815.8" y1="525.82" x2="815.8" y2="527.88"/><line class="cls-24" x1="816.52" y1="525.82" x2="816.52" y2="527.88"/><line class="cls-24" x1="816.81" y1="525.87" x2="816.81" y2="527.93"/><line class="cls-24" x1="815.13" y1="525.82" x2="815.13" y2="527.88"/><line class="cls-24" x1="815.46" y1="525.82" x2="815.46" y2="527.88"/><line class="cls-24" x1="817.1" y1="525.82" x2="817.1" y2="527.88"/><line class="cls-24" x1="817.38" y1="525.82" x2="817.38" y2="527.88"/><rect class="cls-24" x="810.71" y="523.39" width="9.86" height="4.54"/><rect class="cls-24" x="1057.02" y="524.44" width="3.16" height="2.06"/><rect class="cls-24" x="1057.02" y="526.5" width="3.53" height="0.29"/><rect class="cls-24" x="1057.62" y="526.78" width="2.93" height="2.11"/><line class="cls-24" x1="1057.38" y1="524.44" x2="1057.38" y2="526.5"/><line class="cls-24" x1="1057.71" y1="524.44" x2="1057.71" y2="526.5"/><line class="cls-24" x1="1058.06" y1="524.44" x2="1058.06" y2="526.5"/><line class="cls-24" x1="1058.39" y1="524.44" x2="1058.39" y2="526.5"/><line class="cls-24" x1="1058.72" y1="524.44" x2="1058.72" y2="526.5"/><line class="cls-24" x1="1059.05" y1="524.44" x2="1059.05" y2="526.5"/><line class="cls-24" x1="1059.4" y1="524.44" x2="1059.4" y2="526.5"/><line class="cls-24" x1="1059.73" y1="524.44" x2="1059.73" y2="526.5"/><line class="cls-24" x1="1058.99" y1="526.78" x2="1058.99" y2="528.85"/><line class="cls-24" x1="1058.6" y1="526.78" x2="1058.6" y2="528.85"/><line class="cls-24" x1="1059.32" y1="526.78" x2="1059.32" y2="528.85"/><line class="cls-24" x1="1059.61" y1="526.84" x2="1059.61" y2="528.9"/><line class="cls-24" x1="1057.92" y1="526.78" x2="1057.92" y2="528.85"/><line class="cls-24" x1="1058.26" y1="526.78" x2="1058.26" y2="528.85"/><line class="cls-24" x1="1059.9" y1="526.78" x2="1059.9" y2="528.85"/><line class="cls-24" x1="1060.17" y1="526.78" x2="1060.17" y2="528.85"/><rect class="cls-24" x="1053.51" y="524.36" width="9.86" height="4.54"/><rect class="cls-24" x="970.57" y="536.84" width="3.16" height="2.06"/><rect class="cls-24" x="970.57" y="538.9" width="3.53" height="0.29"/><rect class="cls-24" x="971.17" y="539.19" width="2.93" height="2.11"/><line class="cls-24" x1="970.93" y1="536.84" x2="970.93" y2="538.9"/><line class="cls-24" x1="971.26" y1="536.84" x2="971.26" y2="538.9"/><line class="cls-24" x1="971.61" y1="536.84" x2="971.61" y2="538.9"/><line class="cls-24" x1="971.94" y1="536.84" x2="971.94" y2="538.9"/><line class="cls-24" x1="972.27" y1="536.84" x2="972.27" y2="538.9"/><line class="cls-24" x1="972.6" y1="536.84" x2="972.6" y2="538.9"/><line class="cls-24" x1="972.95" y1="536.84" x2="972.95" y2="538.9"/><line class="cls-24" x1="973.28" y1="536.84" x2="973.28" y2="538.9"/><line class="cls-24" x1="972.54" y1="539.19" x2="972.54" y2="541.25"/><line class="cls-24" x1="972.14" y1="539.19" x2="972.14" y2="541.25"/><line class="cls-24" x1="972.87" y1="539.19" x2="972.87" y2="541.25"/><line class="cls-24" x1="973.16" y1="539.24" x2="973.16" y2="541.31"/><line class="cls-24" x1="971.47" y1="539.19" x2="971.47" y2="541.25"/><line class="cls-24" x1="971.8" y1="539.19" x2="971.8" y2="541.25"/><line class="cls-24" x1="973.45" y1="539.19" x2="973.45" y2="541.25"/><line class="cls-24" x1="973.72" y1="539.19" x2="973.72" y2="541.25"/><rect class="cls-24" x="967.06" y="536.76" width="9.86" height="4.54"/></g><g id="Restroom"><polygon class="cls-27" points="900.2 523.71 900.2 521.55 884.95 521.55 884.95 515.12 858.74 515.12 858.74 522.92 860.32 522.92 860.32 535.24 873.11 535.24 873.11 523.69 900.2 523.71"/><text class="cls-3" transform="translate(864.43 520.25)"><tspan class="cls-18">R</tspan><tspan x="1" y="0">est</tspan><tspan class="cls-18" x="3.2" y="0">r</tspan><tspan x="3.85" y="0">oom</tspan></text></g></g></svg>