<svg id="first_floor" data-name="first floor" xmlns="http://www.w3.org/2000/svg" viewBox="0 0 1377 1080"><defs><style>.cls-1{fill:#f3dae9;stroke-width:1.51px;}.cls-1,.cls-10,.cls-100,.cls-101,.cls-102,.cls-109,.cls-11,.cls-110,.cls-112,.cls-113,.cls-116,.cls-117,.cls-12,.cls-123,.cls-125,.cls-127,.cls-13,.cls-14,.cls-15,.cls-16,.cls-17,.cls-18,.cls-19,.cls-2,.cls-20,.cls-21,.cls-22,.cls-23,.cls-24,.cls-25,.cls-26,.cls-27,.cls-28,.cls-29,.cls-3,.cls-30,.cls-31,.cls-32,.cls-33,.cls-34,.cls-35,.cls-36,.cls-37,.cls-38,.cls-39,.cls-4,.cls-40,.cls-41,.cls-42,.cls-43,.cls-44,.cls-45,.cls-46,.cls-47,.cls-48,.cls-49,.cls-5,.cls-50,.cls-51,.cls-52,.cls-53,.cls-54,.cls-55,.cls-56,.cls-57,.cls-58,.cls-59,.cls-6,.cls-60,.cls-61,.cls-62,.cls-63,.cls-66,.cls-67,.cls-7,.cls-70,.cls-71,.cls-72,.cls-73,.cls-74,.cls-75,.cls-76,.cls-78,.cls-8,.cls-82,.cls-83,.cls-84,.cls-87,.cls-89,.cls-9,.cls-92,.cls-93{stroke:#000;}.cls-1,.cls-10,.cls-102,.cls-11,.cls-110,.cls-113,.cls-116,.cls-117,.cls-12,.cls-125,.cls-127,.cls-13,.cls-14,.cls-15,.cls-16,.cls-17,.cls-18,.cls-19,.cls-2,.cls-20,.cls-21,.cls-22,.cls-3,.cls-32,.cls-33,.cls-34,.cls-37,.cls-38,.cls-39,.cls-4,.cls-40,.cls-5,.cls-6,.cls-63,.cls-66,.cls-67,.cls-7,.cls-70,.cls-71,.cls-72,.cls-73,.cls-74,.cls-75,.cls-76,.cls-78,.cls-8,.cls-83,.cls-87,.cls-89,.cls-9,.cls-93{stroke-miterlimit:10;}.cls-10,.cls-11,.cls-12,.cls-13,.cls-14,.cls-15,.cls-16,.cls-17,.cls-18,.cls-19,.cls-2,.cls-20,.cls-21,.cls-22,.cls-24,.cls-25,.cls-27,.cls-28,.cls-3,.cls-30,.cls-31,.cls-32,.cls-33,.cls-34,.cls-35,.cls-36,.cls-37,.cls-38,.cls-39,.cls-4,.cls-40,.cls-5,.cls-6,.cls-7,.cls-8,.cls-9{fill:none;}.cls-2,.cls-66,.cls-83{stroke-width:0.27px;}.cls-3{stroke-width:0.44px;}.cls-4{stroke-width:0.35px;}.cls-5{stroke-width:0.38px;}.cls-6{stroke-width:0.37px;}.cls-7{stroke-width:0.49px;}.cls-8{stroke-width:0.34px;}.cls-9{stroke-width:0.3px;}.cls-10{stroke-width:0.22px;}.cls-11{stroke-width:0.25px;}.cls-12{stroke-width:0.25px;}.cls-13{stroke-width:0.31px;}.cls-14{stroke-width:0.24px;}.cls-15{stroke-width:0.23px;}.cls-16{stroke-width:0.31px;}.cls-17{stroke-width:0.33px;}.cls-18{stroke-width:0.32px;}.cls-19{stroke-width:0.31px;}.cls-20,.cls-78,.cls-89{stroke-width:0.3px;}.cls-21{stroke-width:0.29px;}.cls-22{stroke-width:0.27px;}.cls-23,.cls-26,.cls-29,.cls-41,.cls-42,.cls-43,.cls-44,.cls-45,.cls-46,.cls-47,.cls-48,.cls-49,.cls-50,.cls-51,.cls-52,.cls-53,.cls-54,.cls-55,.cls-56,.cls-57,.cls-58,.cls-59,.cls-60,.cls-61,.cls-62,.cls-82,.cls-84{fill:#e7b5d2;}.cls-100,.cls-101,.cls-109,.cls-112,.cls-123,.cls-23,.cls-24,.cls-25,.cls-26,.cls-27,.cls-28,.cls-29,.cls-30,.cls-31,.cls-35,.cls-36,.cls-41,.cls-42,.cls-43,.cls-44,.cls-45,.cls-46,.cls-47,.cls-48,.cls-49,.cls-50,.cls-51,.cls-52,.cls-53,.cls-54,.cls-55,.cls-56,.cls-57,.cls-58,.cls-59,.cls-60,.cls-61,.cls-62,.cls-82,.cls-84,.cls-92{stroke-linecap:round;stroke-linejoin:round;}.cls-23{stroke-width:0.25px;}.cls-24{stroke-width:0.24px;}.cls-25{stroke-width:0.24px;}.cls-26{stroke-width:0.25px;}.cls-27{stroke-width:0.24px;}.cls-28{stroke-width:0.24px;}.cls-29{stroke-width:0.23px;}.cls-30,.cls-76{stroke-width:0.18px;}.cls-31{stroke-width:0.18px;}.cls-32{stroke-width:0.3px;}.cls-33{stroke-width:0.31px;}.cls-34{stroke-width:0.33px;}.cls-35{stroke-width:0.24px;}.cls-36,.cls-84{stroke-width:0.25px;}.cls-37{stroke-width:0.14px;}.cls-38{stroke-width:0.11px;}.cls-39{stroke-width:0.16px;}.cls-40{stroke-width:0.13px;}.cls-41{stroke-width:0.22px;}.cls-42{stroke-width:0.23px;}.cls-43{stroke-width:0.22px;}.cls-44{stroke-width:0.21px;}.cls-45{stroke-width:0.23px;}.cls-46{stroke-width:0.25px;}.cls-47{stroke-width:0.24px;}.cls-48{stroke-width:0.23px;}.cls-49{stroke-width:0.23px;}.cls-50{stroke-width:0.24px;}.cls-51{stroke-width:0.23px;}.cls-52{stroke-width:0.23px;}.cls-53{stroke-width:0.22px;}.cls-54{stroke-width:0.23px;}.cls-55{stroke-width:0.22px;}.cls-56{stroke-width:0.21px;}.cls-57{stroke-width:0.28px;}.cls-58{stroke-width:0.44px;}.cls-59{stroke-width:0.29px;}.cls-60{stroke-width:0.22px;}.cls-61{stroke-width:0.34px;}.cls-62{stroke-width:0.23px;}.cls-63,.cls-66,.cls-67,.cls-70,.cls-71,.cls-72,.cls-73,.cls-74,.cls-75{fill:#db90bc;}.cls-63{stroke-width:0.33px;}.cls-64{font-size:9.06px;}.cls-64,.cls-68,.cls-77{fill:#fff;font-family:MyriadPro-Regular, Myriad Pro;}.cls-65{fill:#000;}.cls-67{stroke-width:0.3px;}.cls-68{font-size:6.04px;}.cls-69{letter-spacing:0.02em;}.cls-70{stroke-width:0.41px;}.cls-71{stroke-width:0.43px;}.cls-72{stroke-width:0.34px;}.cls-73{stroke-width:0.34px;}.cls-74{stroke-width:0.34px;}.cls-75{stroke-width:0.35px;}.cls-102,.cls-110,.cls-117,.cls-125,.cls-127,.cls-76,.cls-89,.cls-93{fill:#5c2d91;}.cls-77{font-size:12.08px;}.cls-78,.cls-83,.cls-87{fill:#c2458f;}.cls-79{letter-spacing:-0.01em;}.cls-80{letter-spacing:-0.03em;}.cls-81{letter-spacing:0.02em;}.cls-82{stroke-width:0.3px;}.cls-85{letter-spacing:-0.03em;}.cls-86{letter-spacing:0.02em;}.cls-113,.cls-87{stroke-width:0.27px;}.cls-88{letter-spacing:-0.01em;}.cls-90{letter-spacing:0em;}.cls-91{letter-spacing:-0.04em;}.cls-100,.cls-101,.cls-109,.cls-112,.cls-123,.cls-92{fill:#ae96c8;}.cls-92{stroke-width:0.24px;}.cls-93{stroke-width:0.31px;}.cls-94{letter-spacing:-0.02em;}.cls-95{letter-spacing:-0.04em;}.cls-96{letter-spacing:0em;}.cls-97{letter-spacing:0em;}.cls-98{letter-spacing:-0.02em;}.cls-99{letter-spacing:0em;}.cls-100{stroke-width:0.27px;}.cls-101{stroke-width:0.22px;}.cls-102{stroke-width:0.33px;}.cls-103{letter-spacing:-0.02em;}.cls-104{letter-spacing:0em;}.cls-105{letter-spacing:0.01em;}.cls-106{letter-spacing:-0.08em;}.cls-107{letter-spacing:-0.04em;}.cls-108{letter-spacing:0.06em;}.cls-109{stroke-width:0.15px;}.cls-110{stroke-width:0.31px;}.cls-111{letter-spacing:-0.02em;}.cls-112{stroke-width:0.17px;}.cls-113,.cls-116{fill:#d13d46;}.cls-114{letter-spacing:-0.01em;}.cls-115{letter-spacing:-0.01em;}.cls-116{stroke-width:0.21px;}.cls-117{stroke-width:0.32px;}.cls-118{letter-spacing:-0.01em;}.cls-119{letter-spacing:-0.03em;}.cls-120{letter-spacing:-0.04em;}.cls-121{letter-spacing:-0.08em;}.cls-122{letter-spacing:0.01em;}.cls-123{stroke-width:0.27px;}.cls-124{letter-spacing:-0.08em;}.cls-125{stroke-width:0.31px;}.cls-126{letter-spacing:-0.04em;}.cls-127{stroke-width:0.3px;}.cls-128{letter-spacing:-0.08em;}</style></defs><path id="MAP_OUTLINE" data-name="MAP OUTLINE" class="cls-1" d="M490.78,27V21.76H480.59l-5.32-6.69H398.1l-5.16,6.48h-9.77l-5.05-6.48H305.54l-5.17,6.33H290.29l-5.1-6.33-73-.07-5,6.57h-9.88L192.15,15,119,15.07l-5,6.53-6.25.09V33.31H79.49a20.26,20.26,0,0,0-10.1,7.83L30.18,81.36s-3.32,3.52-2.69,10.84c0,.29-.08,24.29-.08,24.29H17.16v9.18L11,130.38v72.94l5.8,4.94v10l-5.8,4.8v73.48l6.16,5.16v9.82L11,316.21v73.47l6.16,5.17v9.71L11,409.43v73.39l5.93,5.06v9.79L11,502.15v74.24l6.16,4.82v9.34L11,595.71v73.48l6.16,5.16v9.53l-6.16,5v73.93l6.16,5.16v9.7H27.49V805.4s-.11,4.47,5.46,9.17l41.62,42.67s1.89,2.37,9.55,2.52c0-.07,23.91,0,23.91,0v11.38h11.6l4.8,6.16h73.48l4.77-5.69h10.09l4.65,5.69h73.37l5-5.7h202.7v93H743.68V872.48l5.78,6.22h70.91l6.08-6.65,10.38,0,6.1,6.69h70.62l6.31-6.92,10,0,6,6.83h70.91l6.05-6.6,10.41,0,6.1,6.7h70.7l6.2-6.87h9.7V859.18h27.66s4.15,1.41,9.23-5.18c0,0,40.43-41.45,40.43-41.45s3.84-2.49,3.14-10.51v-24.4h8.07V770l9.51-8v-71.3l-6.59-6v-9.8l6.59-6.15V597.38l-6.52-5.86v-9.95l6.52-6.06V504.29l-6.58-6.06v-10l6.58-5.9v-71.3l-6.64-6.12v-9.76l6.64-6.05v-71.3l-6.41-5.83V302l6.41-6.08V224.7l-6.56-6,.16-10.09L1214,203V131.47l-6.63-6.11V115.8h-3.61l-7.34-8V87.58s.83-3.94-6.17-9.81L1151,37.55a11.87,11.87,0,0,0-11.42-4.33c.07-.08-14.39,0-14.39,0l-8.74-7.93V21.93h-9.83l-6.34-6.88H1029l-6.25,6.88h-9.33l-6.34-6.88H935.85l-6.34,7.18h-9l-6.7-7.18H842.63l-6.35,6.88H827l-6.25-6.88H749.4l-6.25,6.88h-9.34v5.26Z"/><g id="EMPTY_AREAS" data-name="EMPTY AREAS"><rect class="cls-2" x="1048.65" y="545.88" width="69.22" height="35.97"/><rect class="cls-3" x="1048.65" y="547.06" width="68.58" height="34.79"/><rect class="cls-4" x="528.06" y="269.18" width="46.44" height="33.07"/><rect class="cls-5" x="528.06" y="228.96" width="46.44" height="38.51"/><rect class="cls-6" x="528.06" y="190.63" width="46.44" height="36.69"/><rect class="cls-7" x="528.06" y="309" width="74.93" height="40.82"/><rect class="cls-8" x="661.61" y="309" width="35.06" height="40.82"/><rect class="cls-9" x="568.11" y="355.53" width="28.27" height="40.48"/><rect class="cls-10" x="20.97" y="209.84" width="98.3" height="90.33"/><rect class="cls-11" x="20.97" y="304.88" width="127.45" height="90.33"/><rect class="cls-11" x="20.97" y="399.69" width="127.45" height="90.33"/><rect class="cls-12" x="20.97" y="495.68" width="127.45" height="89.07"/><rect class="cls-12" x="20.97" y="589.29" width="127.45" height="89.07"/><rect class="cls-12" x="20.97" y="682.89" width="127.45" height="89.07"/><polygon class="cls-13" points="211.68 205.13 20.97 205.13 20.97 114.8 111.02 114.8 111.02 93.94 211.68 94.6 211.68 205.13"/><rect class="cls-13" x="200.81" y="393.31" width="63.56" height="51.91"/><rect class="cls-14" x="200.94" y="347.01" width="43.81" height="45.53"/><rect class="cls-15" x="200.94" y="303.25" width="43.81" height="42.17"/><rect class="cls-16" x="429.58" y="485.74" width="16.49" height="59.6"/><rect class="cls-17" x="387.15" y="485.74" width="40.67" height="59.6"/><rect class="cls-18" x="344.07" y="485.74" width="42.07" height="59.6"/><rect class="cls-18" x="305.61" y="485.74" width="38.46" height="59.6"/><rect class="cls-19" x="247.92" y="485.74" width="57.69" height="60.4"/><polygon class="cls-20" points="111.02 27.28 111.02 93.94 211.68 94.6 211.68 192.26 574.5 190.63 575.35 122.05 486.36 122.05 486.36 27.28 111.02 27.28"/><rect class="cls-21" x="771.32" y="486.63" width="27.45" height="57.53"/><rect class="cls-22" x="799.79" y="486.63" width="23.69" height="57.53"/><polygon class="cls-20" points="1203.13 309.45 1117.87 310.41 1117.87 347.01 978.17 347.01 978.62 546.33 1117.87 545.88 1117.87 584.93 1203.13 584.93 1203.13 309.45"/><path class="cls-23" d="M528.25,477.46l-13.45.09s.24-11,13.32-11.8c.12-.12-13.32-1.16-13.49-11.64l13.48-.08Z"/><line class="cls-24" x1="528.26" y1="477.46" x2="528.31" y2="485.93"/><line class="cls-25" x1="528.06" y1="445.55" x2="528.11" y2="454.03"/><path class="cls-23" d="M427.76,477.27l-13.45.09s.24-11,13.32-11.81c.12-.11-13.32-1.15-13.49-11.63l13.48-.08Z"/><line class="cls-24" x1="427.76" y1="477.27" x2="427.82" y2="485.74"/><line class="cls-25" x1="427.57" y1="445.35" x2="427.62" y2="453.84"/><path class="cls-23" d="M340.8,477.32l-13.45.08s.24-11,13.32-11.8c.12-.12-13.33-1.15-13.49-11.63l13.47-.09Z"/><line class="cls-24" x1="340.8" y1="477.32" x2="340.86" y2="485.79"/><line class="cls-25" x1="340.6" y1="445.4" x2="340.66" y2="453.88"/><path class="cls-23" d="M183.49,303.25V316.7s-11-.3-11.72-13.39c-.12-.12-1.24,13.32-11.72,13.42V303.25Z"/><line class="cls-24" x1="183.49" y1="303.25" x2="191.96" y2="303.25"/><line class="cls-25" x1="151.57" y1="303.25" x2="160.05" y2="303.25"/><path class="cls-26" d="M184.42,393v-13s-11,.3-11.71,13c-.12.12-1.24-12.88-11.72-13v13Z"/><line class="cls-27" x1="184.42" y1="392.96" x2="192.89" y2="392.96"/><line class="cls-28" x1="152.51" y1="392.96" x2="160.99" y2="392.96"/><path class="cls-29" d="M505.39,302.72V326s10-1,10.71-11.66C516,314.46,515.36,304,505.39,302.72Z"/><path class="cls-29" d="M526.8,326V302.72s-10,1-10.7,11.66C516.24,314.31,516.83,324.72,526.8,326Z"/><path class="cls-23" d="M527.82,190.63v13.46s-11-.31-11.72-13.39c-.11-.13-1.23,13.31-11.71,13.41V190.63Z"/><rect class="cls-30" x="200.81" y="445.22" width="47.11" height="41.31"/><rect class="cls-30" x="178" y="480.47" width="47.11" height="41.31"/><path class="cls-31" d="M200.81,471.14h8.33s-.19-8.88-8.29-9.45c-.08-.09,8.24-1,8.3-9.45h-8.34Z"/><path class="cls-31" d="M247.92,472.06h8.33s-.19-8.88-8.29-9.45c-.08-.09,8.25-1,8.31-9.45h-8.35Z"/><rect class="cls-32" x="528.06" y="396.48" width="75.32" height="49.07"/><rect class="cls-33" x="427.76" y="347.74" width="21.29" height="97.81"/><rect class="cls-9" x="266.38" y="392.54" width="96.39" height="53.01"/><rect class="cls-9" x="385.45" y="393.31" width="41.04" height="48.71"/><rect class="cls-9" x="384.28" y="442.02" width="42.22" height="3.21"/><rect class="cls-2" x="778.62" y="347.81" width="19.7" height="99.94"/><rect class="cls-2" x="661.61" y="365.31" width="35.06" height="80.23"/><rect class="cls-8" x="666.23" y="489.07" width="30.44" height="55.99"/><rect class="cls-34" x="696.67" y="299.26" width="107.36" height="49.11"/><path class="cls-35" d="M714.54,376.15H702.71s-.44-10.16,11.83-11.61Z"/><path class="cls-36" d="M699,299.56h11.56S711,310.65,699,312.23Z"/><rect class="cls-35" x="696.67" y="348.37" width="19.83" height="28.18"/><rect class="cls-37" x="198.91" y="592.94" width="74.2" height="50"/><rect class="cls-38" x="198.91" y="645.65" width="74.2" height="31.06"/><rect class="cls-39" x="198.91" y="679.42" width="74.2" height="59.04"/><rect class="cls-40" x="198.91" y="546.29" width="74.2" height="43.93"/></g><g id="STARIS"><line class="cls-41" x1="46.54" y1="114.55" x2="46.54" y2="95.09"/><line class="cls-41" x1="51.51" y1="114.55" x2="51.51" y2="95.09"/><line class="cls-41" x1="55.11" y1="114.55" x2="55.11" y2="95.09"/><line class="cls-41" x1="59.41" y1="114.55" x2="59.41" y2="95.09"/><line class="cls-41" x1="63.18" y1="114.55" x2="63.18" y2="95.09"/><line class="cls-41" x1="66.79" y1="114.55" x2="66.79" y2="95.09"/><line class="cls-41" x1="71.09" y1="114.55" x2="71.09" y2="95.09"/><line class="cls-41" x1="75.67" y1="114.55" x2="75.67" y2="95.09"/><line class="cls-41" x1="79.27" y1="114.55" x2="79.27" y2="95.09"/><path class="cls-42" d="M28.91,114.79V88.46a7.52,7.52,0,0,1,2.41-6.19c.05.06,44.71-46,44.71-46h32.35v78Z"/><path class="cls-42" d="M46.2,95,86.51,54.45v34.7s-1.72,5.49-6.3,5.83C80.21,95.21,46.2,95,46.2,95Z"/><line class="cls-42" x1="86.51" y1="56.24" x2="108.38" y2="56.24"/><line class="cls-42" x1="86.51" y1="61.21" x2="108.38" y2="61.21"/><line class="cls-42" x1="86.51" y1="64.81" x2="108.38" y2="64.81"/><line class="cls-42" x1="86.51" y1="69.11" x2="108.38" y2="69.11"/><line class="cls-42" x1="86.51" y1="72.89" x2="108.38" y2="72.89"/><line class="cls-42" x1="86.51" y1="76.49" x2="108.38" y2="76.49"/><line class="cls-42" x1="86.51" y1="80.79" x2="108.38" y2="80.79"/><line class="cls-42" x1="86.51" y1="85.37" x2="108.38" y2="85.37"/><line class="cls-42" x1="86.51" y1="88.97" x2="108.38" y2="88.97"/><line class="cls-43" x1="71.56" y1="41.69" x2="85.39" y2="55.79"/><line class="cls-43" x1="68.02" y1="45.17" x2="81.84" y2="59.26"/><line class="cls-43" x1="65.44" y1="47.69" x2="79.27" y2="61.79"/><line class="cls-43" x1="62.38" y1="50.7" x2="76.2" y2="64.79"/><line class="cls-43" x1="59.68" y1="53.34" x2="73.51" y2="67.44"/><line class="cls-43" x1="57.11" y1="55.87" x2="70.93" y2="69.97"/><line class="cls-43" x1="54.04" y1="58.88" x2="67.87" y2="72.97"/><line class="cls-43" x1="50.77" y1="62.08" x2="64.6" y2="76.18"/><line class="cls-43" x1="48.2" y1="64.61" x2="62.02" y2="78.7"/><line class="cls-44" x1="45.36" y1="67.68" x2="59.35" y2="81.61"/><line class="cls-44" x1="42.04" y1="71.02" x2="56.03" y2="84.95"/><line class="cls-44" x1="39.62" y1="73.44" x2="53.61" y2="87.38"/><line class="cls-44" x1="36.75" y1="76.33" x2="50.74" y2="90.26"/><line class="cls-44" x1="34.4" y1="79.03" x2="48.39" y2="92.96"/><line class="cls-44" x1="32.21" y1="81.3" x2="46.2" y2="95.23"/></g><g id="STARIS-2" data-name="STARIS"><line class="cls-45" x1="106.38" y1="844.68" x2="85.36" y2="844.68"/><line class="cls-45" x1="106.38" y1="839.32" x2="85.36" y2="839.32"/><line class="cls-45" x1="106.38" y1="835.43" x2="85.36" y2="835.43"/><line class="cls-45" x1="106.38" y1="830.79" x2="85.36" y2="830.79"/><line class="cls-45" x1="106.38" y1="826.71" x2="85.36" y2="826.71"/><line class="cls-45" x1="106.38" y1="822.82" x2="85.36" y2="822.82"/><line class="cls-45" x1="106.38" y1="818.18" x2="85.36" y2="818.18"/><line class="cls-45" x1="106.38" y1="813.24" x2="85.36" y2="813.24"/><line class="cls-45" x1="106.38" y1="809.34" x2="85.36" y2="809.34"/><path class="cls-46" d="M106.64,863.72H78.2a8.09,8.09,0,0,1-6.67-2.6c.06-.06-49.7-48.27-49.7-48.27V777.92H106Z"/><path class="cls-46" d="M85.25,845.05,41.49,801.53H79s5.93,1.86,6.3,6.8C85.5,808.33,85.25,845.05,85.25,845.05Z"/><line class="cls-46" x1="43.42" y1="801.53" x2="43.42" y2="777.92"/><line class="cls-46" x1="48.78" y1="801.53" x2="48.78" y2="777.92"/><line class="cls-46" x1="52.67" y1="801.53" x2="52.67" y2="777.92"/><line class="cls-46" x1="57.31" y1="801.53" x2="57.31" y2="777.92"/><line class="cls-46" x1="61.39" y1="801.53" x2="61.39" y2="777.92"/><line class="cls-46" x1="65.28" y1="801.53" x2="65.28" y2="777.92"/><line class="cls-46" x1="69.92" y1="801.53" x2="69.92" y2="777.92"/><line class="cls-46" x1="74.87" y1="801.53" x2="74.87" y2="777.92"/><line class="cls-46" x1="78.76" y1="801.53" x2="78.76" y2="777.92"/><line class="cls-47" x1="27.71" y1="817.67" x2="42.93" y2="802.74"/><line class="cls-47" x1="31.46" y1="821.49" x2="46.68" y2="806.57"/><line class="cls-47" x1="34.19" y1="824.27" x2="49.41" y2="809.35"/><line class="cls-47" x1="37.43" y1="827.58" x2="52.65" y2="812.66"/><line class="cls-47" x1="40.29" y1="830.49" x2="55.51" y2="815.57"/><line class="cls-47" x1="43.02" y1="833.28" x2="58.24" y2="818.35"/><line class="cls-47" x1="46.26" y1="836.58" x2="61.48" y2="821.66"/><line class="cls-47" x1="49.73" y1="840.12" x2="64.95" y2="825.19"/><line class="cls-47" x1="52.45" y1="842.9" x2="67.67" y2="827.97"/><line class="cls-48" x1="55.77" y1="845.95" x2="70.81" y2="830.85"/><line class="cls-48" x1="59.37" y1="849.54" x2="74.41" y2="834.44"/><line class="cls-48" x1="61.99" y1="852.15" x2="77.03" y2="837.05"/><line class="cls-48" x1="65.11" y1="855.26" x2="80.15" y2="840.15"/><line class="cls-48" x1="68.02" y1="857.79" x2="83.07" y2="842.68"/><line class="cls-48" x1="70.47" y1="860.16" x2="85.52" y2="845.05"/></g><g id="STARIS-3" data-name="STARIS"><line class="cls-49" x1="1180.5" y1="775.3" x2="1180.6" y2="796.02"/><line class="cls-49" x1="1175.26" y1="775.32" x2="1175.36" y2="796.04"/><line class="cls-49" x1="1171.46" y1="775.34" x2="1171.56" y2="796.06"/><line class="cls-49" x1="1166.93" y1="775.36" x2="1167.03" y2="796.08"/><line class="cls-49" x1="1162.94" y1="775.38" x2="1163.04" y2="796.1"/><line class="cls-49" x1="1159.13" y1="775.4" x2="1159.23" y2="796.12"/><line class="cls-49" x1="1154.6" y1="775.43" x2="1154.7" y2="796.15"/><line class="cls-49" x1="1149.77" y1="775.45" x2="1149.87" y2="796.17"/><line class="cls-49" x1="1145.96" y1="775.47" x2="1146.06" y2="796.19"/><path class="cls-50" d="M1199.1,775l.14,28a8,8,0,0,1-2.5,6.59c-.07-.06-47,49.24-47,49.24l-34.13.16-.4-83Z"/><path class="cls-50" d="M1181,796.12l-42.32,43.36-.18-36.93s1.79-5.86,6.62-6.25C1145.08,796.06,1181,796.12,1181,796.12Z"/><line class="cls-50" x1="1138.63" y1="837.57" x2="1115.56" y2="837.69"/><line class="cls-50" x1="1138.61" y1="832.29" x2="1115.53" y2="832.4"/><line class="cls-50" x1="1138.59" y1="828.45" x2="1115.51" y2="828.57"/><line class="cls-50" x1="1138.57" y1="823.88" x2="1115.49" y2="823.99"/><line class="cls-50" x1="1138.55" y1="819.86" x2="1115.47" y2="819.97"/><line class="cls-50" x1="1138.53" y1="816.02" x2="1115.45" y2="816.13"/><line class="cls-50" x1="1138.51" y1="811.45" x2="1115.43" y2="811.56"/><line class="cls-50" x1="1138.48" y1="806.57" x2="1115.41" y2="806.69"/><line class="cls-50" x1="1138.46" y1="802.73" x2="1115.39" y2="802.85"/><line class="cls-51" x1="1154.48" y1="852.98" x2="1139.82" y2="838.05"/><line class="cls-51" x1="1158.2" y1="849.27" x2="1143.54" y2="834.34"/><line class="cls-51" x1="1160.9" y1="846.57" x2="1146.24" y2="831.63"/><line class="cls-51" x1="1164.12" y1="843.35" x2="1149.46" y2="828.42"/><line class="cls-51" x1="1166.95" y1="840.52" x2="1152.29" y2="825.59"/><line class="cls-51" x1="1169.66" y1="837.82" x2="1155" y2="822.89"/><line class="cls-51" x1="1172.88" y1="834.6" x2="1158.21" y2="819.67"/><line class="cls-51" x1="1176.31" y1="831.17" x2="1161.65" y2="816.24"/><line class="cls-51" x1="1179.01" y1="828.47" x2="1164.35" y2="813.54"/><line class="cls-52" x1="1181.99" y1="825.18" x2="1167.15" y2="810.43"/><line class="cls-52" x1="1185.48" y1="821.61" x2="1170.64" y2="806.86"/><line class="cls-52" x1="1188.01" y1="819.02" x2="1173.18" y2="804.26"/><line class="cls-52" x1="1191.03" y1="815.93" x2="1176.2" y2="801.17"/><line class="cls-52" x1="1193.49" y1="813.05" x2="1178.66" y2="798.29"/><line class="cls-52" x1="1195.8" y1="810.62" x2="1180.96" y2="795.86"/></g><g id="STARIS-4" data-name="STARIS"><line class="cls-53" x1="1118.05" y1="53.21" x2="1137.54" y2="53.11"/><line class="cls-53" x1="1118.07" y1="58.19" x2="1137.57" y2="58.09"/><line class="cls-53" x1="1118.09" y1="61.81" x2="1137.58" y2="61.71"/><line class="cls-53" x1="1118.11" y1="66.12" x2="1137.6" y2="66.02"/><line class="cls-53" x1="1118.13" y1="69.91" x2="1137.62" y2="69.81"/><line class="cls-53" x1="1118.15" y1="73.53" x2="1137.64" y2="73.43"/><line class="cls-53" x1="1118.17" y1="77.84" x2="1137.66" y2="77.74"/><line class="cls-53" x1="1118.19" y1="82.44" x2="1137.68" y2="82.34"/><line class="cls-53" x1="1118.21" y1="86.06" x2="1137.7" y2="85.96"/><path class="cls-54" d="M1117.72,35.51l26.37-.13a7.48,7.48,0,0,1,6.21,2.38c-.06.06,46.32,44.66,46.32,44.66l.16,32.46-78.1.39Z"/><path class="cls-54" d="M1137.64,52.77,1178.44,93l-34.75.17s-5.51-1.69-5.88-6.29C1137.58,86.9,1137.64,52.77,1137.64,52.77Z"/><line class="cls-54" x1="1176.64" y1="93.03" x2="1176.75" y2="114.98"/><line class="cls-54" x1="1171.67" y1="93.06" x2="1171.78" y2="115.01"/><line class="cls-54" x1="1168.06" y1="93.07" x2="1168.17" y2="115.03"/><line class="cls-54" x1="1163.76" y1="93.09" x2="1163.86" y2="115.05"/><line class="cls-54" x1="1159.97" y1="93.11" x2="1160.08" y2="115.06"/><line class="cls-54" x1="1156.36" y1="93.13" x2="1156.47" y2="115.08"/><line class="cls-54" x1="1152.06" y1="93.15" x2="1152.17" y2="115.1"/><line class="cls-54" x1="1147.47" y1="93.17" x2="1147.58" y2="115.13"/><line class="cls-54" x1="1143.86" y1="93.19" x2="1143.97" y2="115.14"/><line class="cls-55" x1="1191.14" y1="77.96" x2="1177.09" y2="91.91"/><line class="cls-55" x1="1187.64" y1="74.42" x2="1173.59" y2="88.37"/><line class="cls-55" x1="1185.1" y1="71.85" x2="1171.05" y2="85.8"/><line class="cls-55" x1="1182.08" y1="68.79" x2="1168.03" y2="82.73"/><line class="cls-55" x1="1179.41" y1="66.09" x2="1165.36" y2="80.04"/><line class="cls-55" x1="1176.87" y1="63.52" x2="1162.82" y2="77.47"/><line class="cls-55" x1="1173.84" y1="60.46" x2="1159.79" y2="74.4"/><line class="cls-55" x1="1170.62" y1="57.19" x2="1156.57" y2="71.14"/><line class="cls-55" x1="1168.07" y1="54.62" x2="1154.02" y2="68.57"/><line class="cls-56" x1="1164.98" y1="51.79" x2="1151.1" y2="65.9"/><line class="cls-56" x1="1161.63" y1="48.47" x2="1147.74" y2="62.58"/><line class="cls-56" x1="1159.18" y1="46.06" x2="1145.3" y2="60.17"/><line class="cls-56" x1="1156.28" y1="43.18" x2="1142.39" y2="57.3"/><line class="cls-56" x1="1153.56" y1="40.85" x2="1139.68" y2="54.96"/><line class="cls-56" x1="1151.28" y1="38.66" x2="1137.39" y2="52.77"/></g><g id="STARIS-5" data-name="STARIS"><polygon class="cls-57" points="658.47 445.55 605.62 445.55 605.62 373.75 605.62 371.47 658.47 371.47 658.47 373.75 658.47 445.55"/><rect class="cls-57" x="626.7" y="373.75" width="2.14" height="48.02"/><rect class="cls-57" x="633.83" y="373.75" width="1.73" height="48.02"/><line class="cls-57" x1="605.62" y1="385.52" x2="626.7" y2="385.52"/><line class="cls-57" x1="605.62" y1="377.59" x2="626.7" y2="377.59"/><line class="cls-57" x1="605.62" y1="381.12" x2="626.7" y2="381.12"/><line class="cls-57" x1="605.62" y1="398.39" x2="626.7" y2="398.39"/><line class="cls-57" x1="605.62" y1="390.46" x2="626.7" y2="390.46"/><line class="cls-57" x1="605.62" y1="393.99" x2="626.7" y2="393.99"/><line class="cls-57" x1="605.62" y1="410.71" x2="626.7" y2="410.71"/><line class="cls-57" x1="605.62" y1="402.78" x2="626.7" y2="402.78"/><line class="cls-57" x1="605.62" y1="406.31" x2="626.7" y2="406.31"/><line class="cls-58" x1="605.62" y1="421.77" x2="658.47" y2="421.77"/><line class="cls-57" x1="605.62" y1="414.98" x2="626.7" y2="414.98"/><line class="cls-57" x1="605.62" y1="418.87" x2="626.7" y2="418.87"/><line class="cls-58" x1="605.62" y1="373.75" x2="658.47" y2="373.75"/><line class="cls-59" x1="635.56" y1="385.67" x2="658.47" y2="385.67"/><line class="cls-59" x1="635.56" y1="377.75" x2="658.47" y2="377.75"/><line class="cls-59" x1="635.56" y1="381.28" x2="658.47" y2="381.28"/><line class="cls-59" x1="635.56" y1="398.54" x2="658.47" y2="398.54"/><line class="cls-59" x1="635.56" y1="390.62" x2="658.47" y2="390.62"/><line class="cls-59" x1="635.56" y1="394.15" x2="658.47" y2="394.15"/><line class="cls-59" x1="635.56" y1="410.86" x2="658.47" y2="410.86"/><line class="cls-59" x1="635.56" y1="402.94" x2="658.47" y2="402.94"/><line class="cls-59" x1="635.56" y1="406.47" x2="658.47" y2="406.47"/><line class="cls-59" x1="635.56" y1="415.14" x2="658.47" y2="415.14"/><line class="cls-59" x1="635.56" y1="419.02" x2="658.47" y2="419.02"/></g><g id="STARIS-6" data-name="STARIS"><polygon class="cls-60" points="921.07 544.16 878.06 544.16 878.06 491.04 878.06 489.35 921.07 489.35 921.07 491.04 921.07 544.16"/><rect class="cls-60" x="895.21" y="491.04" width="1.74" height="35.53"/><rect class="cls-60" x="901.01" y="491.04" width="1.41" height="35.53"/><line class="cls-60" x1="878.06" y1="499.75" x2="895.21" y2="499.75"/><line class="cls-60" x1="878.06" y1="493.88" x2="895.21" y2="493.88"/><line class="cls-60" x1="878.06" y1="496.49" x2="895.21" y2="496.49"/><line class="cls-60" x1="878.06" y1="509.27" x2="895.21" y2="509.27"/><line class="cls-60" x1="878.06" y1="503.4" x2="895.21" y2="503.4"/><line class="cls-60" x1="878.06" y1="506.02" x2="895.21" y2="506.02"/><line class="cls-60" x1="878.06" y1="518.38" x2="895.21" y2="518.38"/><line class="cls-60" x1="878.06" y1="512.52" x2="895.21" y2="512.52"/><line class="cls-60" x1="878.06" y1="515.13" x2="895.21" y2="515.13"/><line class="cls-61" x1="878.06" y1="526.57" x2="921.07" y2="526.57"/><line class="cls-60" x1="878.06" y1="521.55" x2="895.21" y2="521.55"/><line class="cls-60" x1="878.06" y1="524.42" x2="895.21" y2="524.42"/><line class="cls-61" x1="878.06" y1="491.04" x2="921.07" y2="491.04"/><line class="cls-62" x1="902.42" y1="499.86" x2="921.07" y2="499.86"/><line class="cls-62" x1="902.42" y1="494" x2="921.07" y2="494"/><line class="cls-62" x1="902.42" y1="496.61" x2="921.07" y2="496.61"/><line class="cls-62" x1="902.42" y1="509.38" x2="921.07" y2="509.38"/><line class="cls-62" x1="902.42" y1="503.52" x2="921.07" y2="503.52"/><line class="cls-62" x1="902.42" y1="506.13" x2="921.07" y2="506.13"/><line class="cls-62" x1="902.42" y1="518.5" x2="921.07" y2="518.5"/><line class="cls-62" x1="902.42" y1="512.63" x2="921.07" y2="512.63"/><line class="cls-62" x1="902.42" y1="515.25" x2="921.07" y2="515.25"/><line class="cls-62" x1="902.42" y1="521.66" x2="921.07" y2="521.66"/><line class="cls-62" x1="902.42" y1="524.54" x2="921.07" y2="524.54"/></g><g id="OPD_LIFT" data-name="OPD LIFT"><rect class="cls-63" x="878.69" y="401.6" width="38.92" height="34.93"/><text class="cls-64" transform="translate(891.38 417.06)">OPD<tspan x="0.87" y="10.87">LIFT</tspan><tspan class="cls-65" x="16.23" y="10.87"> </tspan></text></g><g id="OPD_LIFT-2" data-name="OPD LIFT"><rect class="cls-66" x="884.48" y="365.49" width="30.89" height="29.08"/><text class="cls-64" transform="translate(891.38 377.63)">OPD<tspan x="0.87" y="10.87">LIFT</tspan><tspan class="cls-65" x="16.23" y="10.87"> </tspan></text></g><g id="SERVICE_LIFT" data-name="SERVICE LIFT"><rect class="cls-67" x="531.92" y="354.26" width="28.72" height="39.89"/><text class="cls-68" transform="translate(536.67 372.24)">SE<tspan class="cls-69" x="5.95" y="0">R</tspan><tspan x="9.3" y="0">VICE</tspan><tspan x="5.17" y="7.25">LIFT</tspan></text></g><g id="LIFT"><rect class="cls-70" x="449.09" y="407.52" width="42.82" height="35.61"/><text class="cls-64" transform="translate(461.3 425.24)">LIFT<tspan class="cls-65" x="15.36" y="0"> </tspan></text></g><g id="LIFT-2" data-name="LIFT"><rect class="cls-71" x="449.13" y="485.93" width="28.62" height="58.04"/><text class="cls-64" transform="translate(455.72 519.33)">LIFT<tspan class="cls-65" x="15.36" y="0"> </tspan></text></g><g id="LIFT_4" data-name="LIFT 4"><rect class="cls-72" x="532.02" y="507.86" width="29.93" height="35.57"/><text class="cls-64" transform="translate(535.88 528.93)">LIFT 4</text></g><g id="LIFT_3" data-name="LIFT 3"><rect class="cls-73" x="566.72" y="507.86" width="29.49" height="35.57"/><text class="cls-64" transform="translate(570.42 528.93)">LIFT 3</text></g><g id="LIFT_2" data-name="LIFT 2"><rect class="cls-74" x="600.98" y="507.86" width="29.91" height="35.57"/><text class="cls-64" transform="translate(604.57 528.22)">LIFT 2</text></g><g id="LIFT_1" data-name="LIFT 1"><rect class="cls-75" x="634.67" y="507.86" width="30.79" height="35.57"/><text class="cls-64" transform="translate(639.1 528.22)">LIFT 1</text></g><g id="LAB"><rect class="cls-76" x="824.06" y="484.7" width="54.63" height="59.46"/><text class="cls-77" transform="translate(841.42 518.73)">LAB</text></g><rect class="cls-78" x="731.82" y="487.05" width="38.23" height="57.53"/><text class="cls-64" transform="translate(741.47 524.62)"><tspan class="cls-79">M</tspan><tspan x="7.19" y="0">ALE</tspan><tspan class="cls-80" x="-2.29" y="10.87">T</tspan><tspan x="1.97" y="10.87">OIL</tspan><tspan class="cls-81" x="14.66" y="10.87">E</tspan><tspan x="19.26" y="10.87">T</tspan></text><path class="cls-82" d="M731.82,515.82h14.75s.55-12.4-14.75-14.18Z"/><g id="LADIES_TOILET" data-name="LADIES TOILET"><rect class="cls-83" x="716.55" y="347.81" width="62.07" height="99.94"/><path class="cls-84" d="M716.5,407.43h11.56s.44,11.09-11.56,12.68Z"/><text class="cls-77" transform="translate(729.62 392.39)">LADIES<tspan class="cls-85" x="0.6" y="14.5">T</tspan><tspan x="6.28" y="14.5">OIL</tspan><tspan class="cls-86" x="23.19" y="14.5">E</tspan><tspan x="29.32" y="14.5">T</tspan></text></g><g id="GENTS_TOILET" data-name="GENTS TOILET"><polygon class="cls-87" points="798.32 447.76 875.77 447.76 875.61 363.23 819.34 362.85 819.34 343.67 804.03 343.67 804.03 388.14 798.32 388.14 798.32 447.76"/><path class="cls-84" d="M806.27,343.67h11.56s.44,11.09-11.56,12.68Z"/><text class="cls-77" transform="translate(821.34 394.4)">GEN<tspan class="cls-88" x="21.7" y="0">T</tspan><tspan x="27.63" y="0">S </tspan><tspan class="cls-85" x="-0.57" y="14.5">T</tspan><tspan x="5.1" y="14.5">OIL</tspan><tspan class="cls-86" x="22.01" y="14.5">E</tspan><tspan x="28.15" y="14.5">T</tspan></text></g><g id="CARDIOLOGY"><polygon class="cls-89" points="1203.13 308.41 1087.19 308.41 927.88 270.63 927.88 27.55 1117.09 27.55 1117.78 115.32 1205.08 115.21 1203.13 308.41"/><text class="cls-77" transform="translate(1034.11 156.74)"><tspan class="cls-90">C</tspan><tspan x="7.05" y="0">ARDIO</tspan><tspan class="cls-91" x="40.2" y="0">L</tspan><tspan x="45.43" y="0">OGY</tspan></text><path class="cls-92" d="M996.66,286.63l3.08-12.6s10,2.83,7.7,15.24c.09.15,4.47-12.18,14.36-9.86L1018.71,292Z"/></g><g id="MEDICAL_ONCOLOGY" data-name="MEDICAL ONCOLOGY"><rect class="cls-93" x="735.9" y="27.55" width="188" height="244.22"/><text class="cls-77" transform="translate(774.9 148.61)">MEDI<tspan class="cls-90" x="26.59" y="0">C</tspan><tspan x="33.64" y="0">AL ON</tspan><tspan class="cls-94" x="65.57" y="0">C</tspan><tspan x="72.32" y="0">O</tspan><tspan class="cls-95" x="80.64" y="0">L</tspan><tspan x="85.87" y="0">OGY</tspan></text><path class="cls-92" d="M863.59,271.52v-13s10.42.35,11.11,13c.11.12,1.44-12.9,11.6-13v13Z"/></g><g id="SURGICAL_ONCOLOGY" data-name="SURGICAL ONCOLOGY"><polygon class="cls-89" points="578.41 120.22 578.41 299.56 695.31 299.56 695.31 270.18 733.46 270.18 733.46 120.22 578.41 120.22"/><text class="cls-77" transform="translate(599.46 203.26)">SU<tspan class="cls-96" x="13.77" y="0">R</tspan><tspan x="20.31" y="0">GI</tspan><tspan class="cls-97" x="31" y="0">C</tspan><tspan x="38.05" y="0">AL ON</tspan><tspan class="cls-98" x="69.98" y="0">C</tspan><tspan class="cls-99" x="76.73" y="0">O</tspan><tspan class="cls-95" x="85.06" y="0">L</tspan><tspan x="90.29" y="0">OGY</tspan></text><path class="cls-100" d="M695,299.31H679.28s.43-10.42,15.76-11.1c.14-.12-15.67-1.45-15.79-11.6H695Z"/></g><g id="Opthalmology"><polygon class="cls-89" points="977.92 579.86 977.92 792.13 1114.24 792.13 1114.24 773.33 1201.77 773.33 1201.77 584.93 1110.05 584.93 1025.69 631.59 977.92 579.86"/><text class="cls-77" transform="translate(1053.32 694.81)">Opthalmology</text><path class="cls-101" d="M1079.24,601.87l5.86,10.3s-8.39,4.4-14.63-5.31c-.15-.05,4.68,10.89-3.29,15.53l-5.88-10.32Z"/></g><g id="CONS_ROOM-01_DERMATOLOGY_" data-name="CONS ROOM-01(DERMATOLOGY)"><rect class="cls-102" x="885.12" y="706.06" width="92" height="91.18"/><text class="cls-64" transform="translate(899.68 747.8)"><tspan class="cls-103">C</tspan><tspan x="5.06" y="0">ONS </tspan><tspan class="cls-104" x="23.66" y="0">R</tspan><tspan x="28.56" y="0">OO</tspan><tspan class="cls-105" x="41.04" y="0">M</tspan><tspan x="48.38" y="0">-01</tspan><tspan x="-2.01" y="10.87">(DER</tspan><tspan class="cls-79" x="15.93" y="10.87">M</tspan><tspan class="cls-106" x="23.12" y="10.87">A</tspan><tspan class="cls-80" x="27.97" y="10.87">T</tspan><tspan x="32.23" y="10.87">O</tspan><tspan class="cls-107" x="38.47" y="10.87">L</tspan><tspan x="42.39" y="10.87">OG</tspan><tspan class="cls-108" x="54.49" y="10.87">Y</tspan><tspan x="59.89" y="10.87">)</tspan></text><path class="cls-109" d="M922.77,797.12l.06-8.68s6.3.29,6.66,8.72c.07.08.93-8.61,7.07-8.64l-.06,8.69Z"/></g><g id="OPTHAL_OT" data-name="OPTHAL OT"><rect class="cls-110" x="887.11" y="579.58" width="90.01" height="105.46"/><text class="cls-77" transform="translate(900.55 638.99)">OPTHAL <tspan class="cls-111" x="44.28" y="0">O</tspan><tspan x="52.31" y="0">T</tspan></text><path class="cls-112" d="M938.22,579.71l-.07,9.48s-7.34-.31-7.76-9.54c-.08-.08-1.08,9.43-8.24,9.45l.07-9.5Z"/></g><g id="PHARMACY"><rect class="cls-113" x="819.34" y="297.89" width="112.86" height="64.96"/><text class="cls-77" transform="translate(846.91 334.96)">PHAR<tspan class="cls-114" x="28.19" y="0">M</tspan><tspan class="cls-115" x="37.79" y="0">A</tspan><tspan class="cls-96" x="45" y="0">C</tspan><tspan x="52.04" y="0">Y</tspan></text></g><g id="PHARMACY-2" data-name="PHARMACY"><rect class="cls-116" x="783.19" y="579.58" width="70.58" height="61.6"/><text class="cls-77" transform="translate(789.19 610.31)">PHAR<tspan class="cls-114" x="28.19" y="0">M</tspan><tspan class="cls-115" x="37.79" y="0">A</tspan><tspan class="cls-96" x="45" y="0">C</tspan><tspan x="52.04" y="0">Y</tspan></text></g><g id="PLASTIC_SURGERY_DERMATOLOGY_DEPARTMENT" data-name="PLASTIC SURGERY &amp; DERMATOLOGY DEPARTMENT"><rect class="cls-117" x="734.81" y="641.27" width="149.67" height="66.88"/><text class="cls-64" transform="translate(741.82 672.28)">PLASTIC SU<tspan class="cls-104" x="43.28" y="0">R</tspan><tspan x="48.18" y="0">GE</tspan><tspan class="cls-118" x="58.49" y="0">R</tspan><tspan x="63.27" y="0">Y &amp; DER</tspan><tspan class="cls-79" x="92.86" y="0">M</tspan><tspan class="cls-106" x="100.05" y="0">A</tspan><tspan class="cls-119" x="104.9" y="0">T</tspan><tspan x="109.15" y="0">O</tspan><tspan class="cls-120" x="115.4" y="0">L</tspan><tspan x="119.32" y="0">OGY </tspan><tspan x="42.28" y="10.87">DE</tspan><tspan class="cls-121" x="52.77" y="10.87">P</tspan><tspan x="56.83" y="10.87">A</tspan><tspan class="cls-122" x="62.37" y="10.87">R</tspan><tspan x="67.33" y="10.87">TMENT</tspan></text><path class="cls-123" d="M884.48,641.27H871.84s-.48,11.72,12.64,13.39Z"/></g><g id="DERMATOLOGY"><polygon class="cls-89" points="734.39 868.78 734.39 708.18 884.15 708.18 884.15 798.11 1112.93 798.11 1112.93 868.15 734.39 868.78"/><text class="cls-77" transform="translate(875.44 836.85)">DER<tspan class="cls-114" x="20.49" y="0">M</tspan><tspan class="cls-124" x="30.08" y="0">A</tspan><tspan class="cls-85" x="36.54" y="0">T</tspan><tspan x="42.22" y="0">O</tspan><tspan class="cls-91" x="50.54" y="0">L</tspan><tspan x="55.77" y="0">OGY</tspan></text><path class="cls-123" d="M884.45,708.3H871.8s-.48,11.72,12.65,13.4Z"/></g><g id="NEPHROLOGY_UROLOGY" data-name="NEPHROLOGY &amp; UROLOGY"><rect class="cls-125" x="422.45" y="546.14" width="309.37" height="226.47"/><text class="cls-77" transform="translate(514.1 663.11)">NEPH<tspan class="cls-96" x="28.19" y="0">R</tspan><tspan x="34.73" y="0">O</tspan><tspan class="cls-126" x="43.05" y="0">L</tspan><tspan x="48.28" y="0">OGY &amp; U</tspan><tspan class="cls-96" x="91.19" y="0">R</tspan><tspan x="97.73" y="0">O</tspan><tspan class="cls-91" x="106.05" y="0">L</tspan><tspan x="111.28" y="0">OGY</tspan></text><path class="cls-100" d="M731.25,568.84H715.49s.43-10.42,15.76-11.1c.14-.12-15.67-1.45-15.79-11.6h15.79Z"/></g><g id="NEPHRO_URO" data-name="NEPHRO/URO"><rect class="cls-127" x="295.73" y="546.14" width="127.39" height="323.1"/><text class="cls-77" transform="translate(324.63 694.57)">NEPH<tspan class="cls-96" x="28.19" y="0">R</tspan><tspan x="34.73" y="0">O/U</tspan><tspan class="cls-96" x="55.01" y="0">R</tspan><tspan x="61.55" y="0">O</tspan><tspan x="-14.33" y="14.5">TRE</tspan><tspan class="cls-128" x="4.11" y="14.5">A</tspan><tspan x="10.58" y="14.5" xml:space="preserve">TMENT  </tspan><tspan class="cls-96" x="51.31" y="14.5">R</tspan><tspan x="57.85" y="14.5">OOM</tspan></text><path class="cls-100" d="M423.12,568.84H407.36s.43-10.42,15.76-11.1c.14-.12-15.67-1.45-15.79-11.6h15.79Z"/></g></svg>